<svg width="132" height="147" viewBox="0 0 132 147" fill="none" xmlns="http://www.w3.org/2000/svg">
<path d="M114.788 97.3639C118.505 99.7532 119.616 104.741 116.795 108.141C109.18 117.32 99.1838 124.305 87.8352 128.283C73.9587 133.148 58.855 133.24 44.9206 128.543C30.9862 123.847 19.0193 114.632 10.9185 102.36C2.81768 90.0877 -0.952925 75.462 0.204922 60.8031C1.36277 46.1442 7.38275 32.2918 17.3097 21.4438C27.2366 10.5958 40.5019 3.37355 55.0008 0.922981C69.4997 -1.52759 84.4018 0.933893 97.3425 7.91687C107.926 13.6277 116.701 22.0952 122.781 32.3556C125.033 36.1568 123.153 40.9083 119.107 42.6844L79.6504 60.0071C73.8073 62.5724 73.1724 70.6108 78.5403 74.0616L114.788 97.3639Z" fill="#A3D5F2"/>
<path d="M121.399 49.9976C125.575 48.5557 130.192 50.7703 131.019 55.1104C132.025 60.3925 132.262 65.8069 131.708 71.1839C131.155 76.5608 129.82 81.8136 127.758 86.7797C126.064 90.8603 121.094 92.0879 117.299 89.8253L91.2852 74.3153C85.4402 70.8304 86.3387 62.103 92.7712 59.882L121.399 49.9976Z" fill="#FF7E67"/>
<path fill-rule="evenodd" clip-rule="evenodd" d="M75.0624 33.8076C76.7767 35.5219 77.9628 37.6657 78.5159 39.9861C78.9054 41.6201 77.5083 43 75.8285 43C74.2274 43 72.9569 41.7087 72.2661 40.2643C71.9027 39.5042 71.4104 38.8038 70.8033 38.1967C69.3968 36.7902 67.4891 36 65.5 36C63.5109 36 61.6032 36.7902 60.1967 38.1967C59.5037 38.8897 58.9603 39.7044 58.5874 40.5905C58.0443 41.8807 56.929 43 55.5292 43C54.0606 43 52.8427 41.7972 53.141 40.3592C53.6521 37.8959 54.8718 35.6135 56.6776 33.8076C59.1156 31.3696 62.4222 30 65.87 30C69.3178 30 72.6244 31.3696 75.0624 33.8076Z" fill="#07689F"/>
</svg>
